#!OML:ASF E:\motion texture\Top Level 1\Subject 1\Session 1\male.ASF
:FULLY-SPECIFIED
:DEGREES
146
root 11.7309 17.8594 7.13409 180.302 -86.7383 -177.224
lowerback 0.361133 -2.1282 0.121505
upperback -2.52976 -2.82436 2.65932
thorax -2.6718 -1.4017 2.7403
lowerneck -12.1786 -3.95499 -7.70063
upperneck 25.7596 -2.44657 -8.51063
head 10.3331 -3.18062 -2.09485
rclavicle 1.44367e-014 -1.11319e-014
rhumerus -14.7678 -1.15791 -70.7633
rradius 114.294
rwrist -10.7393
rhand -20.1779 -33.167
rfingers 7.12502
rthumb 6.1681 -63.0572
lclavicle 1.44367e-014 -1.11319e-014
lhumerus -20.5415 0.581246 76.8591
lradius 104.788
lwrist 0.589419
lhand -16.2619 31.7633
lfingers 7.12502
lthumb 9.9475 61.5083
rfemur -34.2922 -8.85762 19.9634
rtibia 57.3711
rfoot -5.19531 -18.2743
rtoes 3.81065
lfemur -2.51684 -4.77254 -21.9618
ltibia 14.799
lfoot -12.0466 5.85184
ltoes -2.24591
147
root 11.5941 17.8535 7.13742 181.695 -86.9016 -178.475
lowerback 0.386034 -2.1797 0.0813727
upperback -2.60358 -2.89279 2.68834
thorax -2.75552 -1.43421 2.79786
lowerneck -12.1683 -3.88646 -7.6421
upperneck 25.8348 -2.33123 -8.65738
head 10.3577 -3.14686 -2.14607
rclavicle -1.90833e-014 2.54444e-014
rhumerus -14.0733 -2.37041 -70.0247
rradius 115.216
rwrist -10.0794
rhand -21.1995 -32.716
rfingers 7.12502
rthumb 5.18176 -62.6326
lclavicle -1.90833e-014 2.54444e-014
lhumerus -19.5542 0.148286 76.347
lradius 105.675
lwrist -1.67921
lhand -17.1127 30.9981
lfingers 7.12502
lthumb 9.1266 60.7806
rfemur -34.7873 -8.97841 19.9159
rtibia 55.2052
rfoot -5.55085 -18.4255
rtoes 3.91147
lfemur -2.00101 -4.81707 -22.1371
ltibia 14.4884
lfoot -12.3193 5.82547
ltoes -2.41937
148
root 11.4566 17.8461 7.13959 183.2 -87.0652 -179.82
lowerback 0.389093 -2.22224 0.038523
upperback -2.68054 -2.94981 2.71169
thorax -2.83076 -1.46102 2.85003
lowerneck -12.1237 -3.84071 -7.5991
upperneck 25.8798 -2.25979 -8.76092
head 10.3646 -3.12659 -2.1823
rclavicle 1.65737e-014 -1.03368e-014
rhumerus -13.4458 -3.64048 -69.3143
rradius 116.063
rwrist -9.45443
rhand -22.0825 -32.2532
rfingers 7.12502
rthumb 4.32907 -62.1889
lclavicle 1.65737e-014 -1.03368e-014
lhumerus -18.5367 -0.281063 75.8608
lradius 106.481
lwrist -3.77785
lhand -18.0438 30.3063
lfingers 7.12502
lthumb 8.22802 60.126
rfemur -35.192 -9.06988 19.855
rtibia 52.8485
rfoot -5.76105 -18.5796
rtoes 4.15569
lfemur -1.51536 -4.85872 -22.3006
ltibia 14.2018
lfoot -12.5929 5.79384
ltoes -2.60872
149
root 11.3185 17.8372 7.14079 184.816 -87.2202 -181.249
lowerback 0.361841 -2.25327 -0.00179991
upperback -2.76121 -2.99205 2.72892
thorax -2.89381 -1.48066 2.89288
lowerneck -12.079 -3.81463 -7.56424
upperneck 25.9181 -2.22251 -8.82596
head 10.3691 -3.11696 -2.20721
rclavicle 2.73577e-014 3.18055e-015
rhumerus -12.8834 -4.96471 -68.637
rradius 116.837
rwrist -8.8815
rhand -22.7771 -31.7803
rfingers 7.12502
rthumb 3.65836 -61.7287
lclavicle 2.73577e-014 3.18055e-015
lhumerus -17.486 -0.707696 75.4097
lradius 107.219
lwrist -5.67366
lhand -18.9423 29.7123
lfingers 7.12502
lthumb 7.36088 59.5643
rfemur -35.5294 -9.11616 19.7795
rtibia 50.3289
rfoot -5.83454 -18.6949
rtoes 4.51582
lfemur -1.06873 -4.88935 -22.4501
ltibia 13.9396
lfoot -12.8649 5.76061
ltoes -2.80538
150
root 11.1794 17.8269 7.14053 186.591 -87.3812 -182.822
lowerback 0.305382 -2.2796 -0.045449
upperback -2.83981 -3.02867 2.73995
thorax -2.93866 -1.49762 2.92957
lowerneck -12.0275 -3.80239 -7.52264
upperneck 25.9397 -2.21253 -8.8664
head 10.3656 -3.1144 -2.22667
rclavicle 2.57923e-014 0
rhumerus -12.3894 -6.32935 -67.996
rradius 117.539
rwrist -8.3518
rhand -23.2696 -31.3137
rfingers 7.12502
rthumb 3.18272 -61.2697
lclavicle 2.57923e-014 0
lhumerus -16.4002 -1.1201 75.0061
lradius 107.877
lwrist -7.40546
lhand -19.8783 29.2089
lfingers 7.12502
lthumb 6.45726 59.0905
rfemur -35.7657 -9.11731 19.6803
rtibia 47.6177
rfoot -5.74229 -18.7604
rtoes 4.86322
lfemur -0.651151 -4.90187 -22.582
ltibia 13.7053
lfoot -13.146 5.70283
ltoes -3.03027
151
root 11.0396 17.8153 7.13894 188.579 -87.5382 -184.585
lowerback 0.224279 -2.30025 -0.0926935
upperback -2.92039 -3.05828 2.74593
thorax -2.97205 -1.51115 2.96175
lowerneck -11.9773 -3.80607 -7.49807
upperneck 25.951 -2.2302 -8.86552
head 10.3587 -3.11989 -2.23139
rclavicle -7.15625e-015 2.38542e-015
rhumerus -11.9601 -7.7136 -67.3952
rradius 118.162
rwrist -7.87685
rhand -23.6321 -30.8486
rfingers 7.12502
rthumb 2.83268 -60.8095
lclavicle -7.15625e-015 2.38542e-015
lhumerus -15.302 -1.51837 74.6501
lradius 108.468
lwrist -8.95033
lhand -20.7958 28.7857
lfingers 7.12502
lthumb 5.57155 58.6924
rfemur -35.9277 -9.05261 19.5531
rtibia 44.7524
rfoot -5.49984 -18.7476
rtoes 5.16707
lfemur -0.272756 -4.89121 -22.6968
ltibia 13.5035
lfoot -13.4312 5.63043
ltoes -3.29644
152
root 10.8991 17.8024 7.13586 190.837 -87.6954 -186.604
lowerback 0.119834 -2.31889 -0.144912
upperback -2.99969 -3.0857 2.74703
thorax -2.99103 -1.52366 2.9904
lowerneck -11.9365 -3.82294 -7.48574
upperneck 25.9546 -2.26977 -8.83056
head 10.3511 -3.13154 -2.22441
rclavicle -2.8302e-014 3.18055e-014
rhumerus -11.6022 -9.08728 -66.8358
rradius 118.701
rwrist -7.46207
rhand -23.8953 -30.4299
rfingers 7.12502
rthumb 2.57844 -60.3941
lclavicle -2.8302e-014 3.18055e-014
lhumerus -14.2076 -1.89903 74.3422
lradius 109.005
lwrist -10.2873
lhand -21.6457 28.4007
lfingers 7.12502
lthumb 4.75086 58.3275
rfemur -36.0075 -8.90459 19.3882
rtibia 41.7413
rfoot -5.13242 -18.6602
rtoes 5.43101
lfemur 0.0736981 -4.85642 -22.793
ltibia 13.3323
lfoot -13.7184 5.52847
ltoes -3.57553
153
root 10.7577 17.7882 7.13128 193.531 -87.8562 -189.049
lowerback -0.00904489 -2.33815 -0.207573
upperback -3.07078 -3.11451 2.74432
thorax -2.98732 -1.53686 3.01942
lowerneck -11.9111 -3.85423 -7.48804
upperneck 25.9482 -2.33064 -8.76626
head 10.3431 -3.14983 -2.20707
rclavicle -7.70291e-016 -1.27222e-014
rhumerus -11.304 -10.4355 -66.3172
rradius 119.151
rwrist -7.1252
rhand -24.0827 -30.0989
rfingers 7.12502
rthumb 2.3975 -60.0651
lclavicle -7.70291e-016 -1.27222e-014
lhumerus -13.1273 -2.25863 74.0854
lradius 109.497
lwrist -11.401
lhand -22.3646 28.0075
lfingers 7.12502
lthumb 4.05672 57.9486
rfemur -36.0017 -8.65611 19.171
rtibia 38.6075
rfoot -4.68441 -18.5115
rtoes 5.59325
lfemur 0.38985 -4.80332 -22.8763
ltibia 13.2034
lfoot -14.0121 5.39697
ltoes -3.86734
154
root 10.6153 17.7727 7.12509 196.713 -88.0221 -191.978
lowerback -0.160782 -2.35865 -0.282816
upperback -3.132 -3.14537 2.74255
thorax -2.95965 -1.55103 3.05491
lowerneck -11.8911 -3.90002 -7.518
upperneck 25.9223 -2.4133 -8.66662
head 10.3299 -3.17489 -2.17449
rclavicle 4.79568e-015 1.51076e-014
rhumerus -11.0685 -11.7449 -65.8306
rradius 119.509
rwrist -6.88204
rhand -24.2525 -29.8506
rfingers 7.12502
rthumb 2.2335 -59.8186
lclavicle 4.79568e-015 1.51076e-014
lhumerus -12.0712 -2.59483 73.892
lradius 109.943
lwrist -12.311
lhand -22.9051 27.5731
lfingers 7.12502
lthumb 3.53474 57.5236
rfemur -35.9108 -8.27888 18.8925
rtibia 35.3755
rfoot -4.22417 -18.3469
rtoes 5.62687
lfemur 0.68473 -4.73675 -22.9433
ltibia 13.1069
lfoot -14.3002 5.23979
ltoes -4.19854
155
root 10.4719 17.7557 7.11741 200.604 -88.1923 -195.615
lowerback -0.322236 -2.38126 -0.368542
upperback -3.18763 -3.17913 2.74079
thorax -2.92 -1.5665 3.09553
lowerneck -11.8854 -3.95772 -7.56279
upperneck 25.8871 -2.5113 -8.54923
head 10.3166 -3.20554 -2.13506
rclavicle -4.95098e-014 1.19271e-014
rhumerus -10.8987 -13.0073 -65.3726
rradius 119.767
rwrist -6.75757
rhand -24.3716 -29.7357
rfingers 7.12502
rthumb 2.11849 -59.705
lclavicle -4.95098e-014 1.19271e-014
lhumerus -11.0605 -2.91047 73.7631
lradius 110.352
lwrist -13.0281
lhand -23.2106 27.1096
lfingers 7.12502
lthumb 3.23976 57.0647
rfemur -35.7348 -7.7428 18.5322
rtibia 32.0805
rfoot -3.85337 -18.2142
rtoes 5.47196
lfemur 0.962419 -4.64651 -22.9969
ltibia 13.049
lfoot -14.593 5.05616
ltoes -4.52323
